<?xml version="1.0" encoding="UTF-8" standalone="no"?>
<!-- Created with Inkscape (http://www.inkscape.org/) -->
<svg xmlns:dc="http://purl.org/dc/elements/1.1/" xmlns:cc="http://creativecommons.org/ns#" xmlns:rdf="http://www.w3.org/1999/02/22-rdf-syntax-ns#" xmlns:svg="http://www.w3.org/2000/svg" xmlns="http://www.w3.org/2000/svg" xmlns:sodipodi="http://sodipodi.sourceforge.net/DTD/sodipodi-0.dtd" xmlns:inkscape="http://www.inkscape.org/namespaces/inkscape" width="159.12869" height="79.310188" id="svg2" version="1.1" inkscape:version="0.48.4 r9939" sodipodi:docname="icons2.svg">
  <defs id="defs4">
    <marker inkscape:stockid="Arrow2Lend" orient="auto" refY="0" refX="0" id="Arrow2Lend" style="overflow:visible">
      <path id="path3966" style="font-size:12px;fill-rule:evenodd;stroke-width:0.625;stroke-linejoin:round" d="M 8.7185878,4.0337352 -2.2072895,0.01601326 8.7185884,-4.0017078 c -1.7454984,2.3720609 -1.7354408,5.6174519 -6e-7,8.035443 z" transform="matrix(-1.1,0,0,-1.1,-1.1,0)" inkscape:connector-curvature="0"/>
    </marker>
    <marker inkscape:stockid="Arrow2Mstart" orient="auto" refY="0" refX="0" id="Arrow2Mstart" style="overflow:visible">
      <path id="path3969" style="font-size:12px;fill-rule:evenodd;stroke-width:0.625;stroke-linejoin:round" d="M 8.7185878,4.0337352 -2.2072895,0.01601326 8.7185884,-4.0017078 c -1.7454984,2.3720609 -1.7354408,5.6174519 -6e-7,8.035443 z" transform="scale(0.6,0.6)" inkscape:connector-curvature="0"/>
    </marker>
    <marker inkscape:stockid="Arrow1Send" orient="auto" refY="0" refX="0" id="Arrow1Send" style="overflow:visible">
      <path id="path3960" d="M 0,0 5,-5 -12.5,0 5,5 0,0 z" style="fill-rule:evenodd;stroke:#000000;stroke-width:1pt;marker-start:none" transform="matrix(-0.2,0,0,-0.2,-1.2,0)" inkscape:connector-curvature="0"/>
    </marker>
    <marker inkscape:stockid="Arrow1Mend" orient="auto" refY="0" refX="0" id="Arrow1Mend" style="overflow:visible">
      <path id="path3954" d="M 0,0 5,-5 -12.5,0 5,5 0,0 z" style="fill-rule:evenodd;stroke:#000000;stroke-width:1pt;marker-start:none" transform="matrix(-0.4,0,0,-0.4,-4,0)" inkscape:connector-curvature="0"/>
    </marker>
    <marker inkscape:stockid="Arrow2Mend" orient="auto" refY="0" refX="0" id="Arrow2Mend" style="overflow:visible">
      <path id="path3972" style="font-size:12px;fill-rule:evenodd;stroke-width:0.625;stroke-linejoin:round" d="M 8.7185878,4.0337352 -2.2072895,0.01601326 8.7185884,-4.0017078 c -1.7454984,2.3720609 -1.7354408,5.6174519 -6e-7,8.035443 z" transform="scale(-0.6,-0.6)" inkscape:connector-curvature="0"/>
    </marker>
    <inkscape:perspective sodipodi:type="inkscape:persp3d" inkscape:vp_x="0 : 526.18109 : 1" inkscape:vp_y="0 : 1000 : 0" inkscape:vp_z="744.09448 : 526.18109 : 1" inkscape:persp3d-origin="372.04724 : 350.78739 : 1" id="perspective2989"/>
  </defs>
  <sodipodi:namedview id="base" pagecolor="#ffffff" bordercolor="#666666" borderopacity="1.0" inkscape:pageopacity="0.0" inkscape:pageshadow="2" inkscape:zoom="4.6400001" inkscape:cx="74.210274" inkscape:cy="61.141723" inkscape:document-units="px" inkscape:current-layer="layer1" showgrid="false" inkscape:window-width="1920" inkscape:window-height="936" inkscape:window-x="-2" inkscape:window-y="24" inkscape:window-maximized="1" showguides="false" inkscape:guide-bbox="true" fit-margin-top="0.1" fit-margin-left="0.1" fit-margin-right="0.1" fit-margin-bottom="0.1">
    <sodipodi:guide orientation="1,0" position="108.31444,-23.379106" id="guide9585"/>
    <sodipodi:guide orientation="0,1" position="109.67158,-25.700536" id="guide9587"/>
    <sodipodi:guide orientation="0,1" position="147.70237,33.266214" id="guide3987"/>
  </sodipodi:namedview>
  <metadata id="metadata7">
    <rdf:RDF>
      <cc:Work rdf:about="">
        <dc:format>image/svg+xml</dc:format>
        <dc:type rdf:resource="http://purl.org/dc/dcmitype/StillImage"/>
        <dc:title/>
      </cc:Work>
    </rdf:RDF>
  </metadata>
  <g inkscape:label="Layer 1" inkscape:groupmode="layer" id="layer1" transform="translate(-595.18556,-18.387179)">
    <path style="fill:#9400d3;fill-rule:evenodd;stroke:#000000;stroke-width:0.06857273px;stroke-linecap:butt;stroke-linejoin:miter;stroke-opacity:1" d="m 601.30523,18.612202 c -0.0502,4e-5 -0.1026,0.0055 -0.15683,0.01765 -1.15671,0.258499 -0.21861,2.706124 -1.18827,3.387192 -0.96965,0.681066 -2.95637,-1.030842 -3.59133,-0.03091 -0.63497,0.999948 1.76074,2.066129 1.55712,3.232726 -0.20362,1.166597 -2.81861,1.362133 -2.55987,2.517774 0.25875,1.155642 2.70643,0.216215 3.38813,1.184966 0.68171,0.96875 -1.02959,2.953617 -0.0288,3.587993 1.00088,0.634376 2.06806,-1.759103 3.23574,-1.555679 1.16768,0.203423 1.36119,2.818199 2.51791,2.559701 1.15671,-0.258499 0.21862,-2.706124 1.18827,-3.387191 0.96965,-0.681066 2.95637,1.028634 3.59133,0.02868 0.63497,-0.999946 -1.76074,-2.066127 -1.55712,-3.232724 0.20362,-1.166598 2.81861,-1.359926 2.55987,-2.515568 -0.25875,-1.155642 -2.70643,-0.218422 -3.38812,-1.187172 -0.68172,-0.96875 1.02958,-2.953619 0.0288,-3.587994 -1.00088,-0.634376 -2.06805,1.759104 -3.23574,1.55568 -1.11295,-0.193888 -1.34055,-2.575939 -2.36108,-2.575147 z m 1.50853,4.302947 c 1.74408,0 3.15844,1.413029 3.15844,3.155492 0,1.742463 -1.41436,3.155494 -3.15844,3.155494 -1.74408,0 -3.15844,-1.413031 -3.15844,-3.155494 0,-1.742463 1.41436,-3.155492 3.15844,-3.155492 z" id="path3005" inkscape:connector-curvature="0" inkscape:export-filename="/mnt/depot/widgetIcons.png" inkscape:export-xdpi="90" inkscape:export-ydpi="90"/>
    <path inkscape:connector-curvature="0" id="path3043" d="m 601.30523,34.612202 c -0.0502,4e-5 -0.1026,0.0055 -0.15683,0.01765 -1.15671,0.258499 -0.21861,2.706124 -1.18827,3.387192 -0.96965,0.681066 -2.95637,-1.030842 -3.59133,-0.03091 -0.63497,0.999948 1.76074,2.066129 1.55712,3.232726 -0.20362,1.166597 -2.81861,1.362133 -2.55987,2.517774 0.25875,1.155642 2.70643,0.216215 3.38813,1.184966 0.68171,0.96875 -1.02959,2.953617 -0.0288,3.587993 1.00088,0.634376 2.06806,-1.759103 3.23574,-1.555679 1.16768,0.203423 1.36119,2.818199 2.51791,2.559701 1.15671,-0.258499 0.21862,-2.706124 1.18827,-3.387191 0.96965,-0.681066 2.95637,1.028634 3.59133,0.02868 0.63497,-0.999946 -1.76074,-2.066127 -1.55712,-3.232724 0.20362,-1.166598 2.81861,-1.359926 2.55987,-2.515568 -0.25875,-1.155642 -2.70643,-0.218422 -3.38812,-1.187172 -0.68172,-0.96875 1.02958,-2.953619 0.0288,-3.587994 -1.00088,-0.634376 -2.06805,1.759104 -3.23574,1.55568 -1.11295,-0.193888 -1.34055,-2.575939 -2.36108,-2.575147 z m 1.50853,4.302947 c 1.74408,0 3.15844,1.413029 3.15844,3.155492 0,1.742463 -1.41436,3.155494 -3.15844,3.155494 -1.74408,0 -3.15844,-1.413031 -3.15844,-3.155494 0,-1.742463 1.41436,-3.155492 3.15844,-3.155492 z" style="fill:#000000;fill-rule:evenodd;stroke:#000000;stroke-width:0.06857273px;stroke-linecap:butt;stroke-linejoin:miter;stroke-opacity:1" inkscape:export-filename="/mnt/depot/widgetIcons.png" inkscape:export-xdpi="90" inkscape:export-ydpi="90"/>
    <path style="fill:#fffff0;fill-rule:evenodd;stroke:#000000;stroke-width:0.06857273px;stroke-linecap:butt;stroke-linejoin:miter;stroke-opacity:1" d="m 601.30523,50.612202 c -0.0502,4e-5 -0.1026,0.0055 -0.15683,0.01765 -1.15671,0.258499 -0.21861,2.706124 -1.18827,3.387188 -0.96965,0.68107 -2.95637,-1.030838 -3.59133,-0.0309 -0.63497,0.99995 1.76074,2.06613 1.55712,3.23273 -0.20362,1.1666 -2.81861,1.36213 -2.55987,2.51777 0.25875,1.15565 2.70643,0.21622 3.38813,1.18497 0.68171,0.96875 -1.02959,2.95362 -0.0288,3.58799 1.00088,0.63438 2.06806,-1.7591 3.23574,-1.55568 1.16768,0.20343 1.36119,2.8182 2.51791,2.55971 1.15671,-0.2585 0.21862,-2.70613 1.18827,-3.3872 0.96965,-0.68106 2.95637,1.02864 3.59133,0.0287 0.63497,-0.99994 -1.76074,-2.06612 -1.55712,-3.23272 0.20362,-1.1666 2.81861,-1.35993 2.55987,-2.51557 -0.25875,-1.15564 -2.70643,-0.21842 -3.38812,-1.18717 -0.68172,-0.96875 1.02958,-2.953619 0.0288,-3.587994 -1.00088,-0.634376 -2.06805,1.759104 -3.23574,1.55568 -1.11295,-0.193888 -1.34055,-2.575939 -2.36108,-2.575147 z m 1.50853,4.302948 c 1.74408,0 3.15844,1.41303 3.15844,3.15549 0,1.74246 -1.41436,3.1555 -3.15844,3.1555 -1.74408,0 -3.15844,-1.41304 -3.15844,-3.1555 0,-1.74246 1.41436,-3.15549 3.15844,-3.15549 z" id="path3045" inkscape:connector-curvature="0" inkscape:export-filename="/mnt/depot/widgetIcons.png" inkscape:export-xdpi="90" inkscape:export-ydpi="90"/>
    <path inkscape:connector-curvature="0" id="path3047" d="m 617.30523,18.612202 c -0.0502,4e-5 -0.1026,0.0055 -0.15683,0.01765 -1.15671,0.258499 -0.21861,2.706124 -1.18827,3.387192 -0.96965,0.681066 -2.95637,-1.030842 -3.59133,-0.03091 -0.63497,0.999948 1.76074,2.066129 1.55712,3.232726 -0.20362,1.166597 -2.81861,1.362133 -2.55987,2.517774 0.25875,1.155642 2.70643,0.216215 3.38813,1.184966 0.68171,0.96875 -1.02959,2.953617 -0.0288,3.587993 1.00088,0.634376 2.06806,-1.759103 3.23574,-1.555679 1.16768,0.203423 1.36119,2.818199 2.51791,2.559701 1.15671,-0.258499 0.21862,-2.706124 1.18827,-3.387191 0.96965,-0.681066 2.95637,1.028634 3.59133,0.02868 0.63497,-0.999946 -1.76074,-2.066127 -1.55712,-3.232724 0.20362,-1.166598 2.81861,-1.359926 2.55987,-2.515568 -0.25875,-1.155642 -2.70643,-0.218422 -3.38812,-1.187172 -0.68172,-0.96875 1.02958,-2.953619 0.0288,-3.587994 -1.00088,-0.634376 -2.06805,1.759104 -3.23574,1.55568 -1.11295,-0.193888 -1.34055,-2.575939 -2.36108,-2.575147 z m 1.50853,4.302947 c 1.74408,0 3.15844,1.413029 3.15844,3.155492 0,1.742463 -1.41436,3.155494 -3.15844,3.155494 -1.74408,0 -3.15844,-1.413031 -3.15844,-3.155494 0,-1.742463 1.41436,-3.155492 3.15844,-3.155492 z" style="fill:#0000ff;fill-rule:evenodd;stroke:#000000;stroke-width:0.06857273px;stroke-linecap:butt;stroke-linejoin:miter;stroke-opacity:1" inkscape:export-filename="/mnt/depot/widgetIcons.png" inkscape:export-xdpi="90" inkscape:export-ydpi="90"/>
    <path style="fill:#8b4513;fill-rule:evenodd;stroke:#000000;stroke-width:0.06857273px;stroke-linecap:butt;stroke-linejoin:miter;stroke-opacity:1" d="m 617.30523,34.612202 c -0.0502,4e-5 -0.1026,0.0055 -0.15683,0.01765 -1.15671,0.258499 -0.21861,2.706124 -1.18827,3.387192 -0.96965,0.681066 -2.95637,-1.030842 -3.59133,-0.03091 -0.63497,0.999948 1.76074,2.066129 1.55712,3.232726 -0.20362,1.166597 -2.81861,1.362133 -2.55987,2.517774 0.25875,1.155642 2.70643,0.216215 3.38813,1.184966 0.68171,0.96875 -1.02959,2.953617 -0.0288,3.587993 1.00088,0.634376 2.06806,-1.759103 3.23574,-1.555679 1.16768,0.203423 1.36119,2.818199 2.51791,2.559701 1.15671,-0.258499 0.21862,-2.706124 1.18827,-3.387191 0.96965,-0.681066 2.95637,1.028634 3.59133,0.02868 0.63497,-0.999946 -1.76074,-2.066127 -1.55712,-3.232724 0.20362,-1.166598 2.81861,-1.359926 2.55987,-2.515568 -0.25875,-1.155642 -2.70643,-0.218422 -3.38812,-1.187172 -0.68172,-0.96875 1.02958,-2.953619 0.0288,-3.587994 -1.00088,-0.634376 -2.06805,1.759104 -3.23574,1.55568 -1.11295,-0.193888 -1.34055,-2.575939 -2.36108,-2.575147 z m 1.50853,4.302947 c 1.74408,0 3.15844,1.413029 3.15844,3.155492 0,1.742463 -1.41436,3.155494 -3.15844,3.155494 -1.74408,0 -3.15844,-1.413031 -3.15844,-3.155494 0,-1.742463 1.41436,-3.155492 3.15844,-3.155492 z" id="path3049" inkscape:connector-curvature="0" inkscape:export-filename="/mnt/depot/widgetIcons.png" inkscape:export-xdpi="90" inkscape:export-ydpi="90"/>
    <path inkscape:connector-curvature="0" id="path3051" d="m 617.30523,50.612202 c -0.0502,4e-5 -0.1026,0.0055 -0.15683,0.01765 -1.15671,0.258499 -0.21861,2.706124 -1.18827,3.387188 -0.96965,0.68107 -2.95637,-1.030838 -3.59133,-0.0309 -0.63497,0.99995 1.76074,2.06613 1.55712,3.23273 -0.20362,1.1666 -2.81861,1.36213 -2.55987,2.51777 0.25875,1.15565 2.70643,0.21622 3.38813,1.18497 0.68171,0.96875 -1.02959,2.95362 -0.0288,3.58799 1.00088,0.63438 2.06806,-1.7591 3.23574,-1.55568 1.16768,0.20343 1.36119,2.8182 2.51791,2.55971 1.15671,-0.2585 0.21862,-2.70613 1.18827,-3.3872 0.96965,-0.68106 2.95637,1.02864 3.59133,0.0287 0.63497,-0.99994 -1.76074,-2.06612 -1.55712,-3.23272 0.20362,-1.1666 2.81861,-1.35993 2.55987,-2.51557 -0.25875,-1.15564 -2.70643,-0.21842 -3.38812,-1.18717 -0.68172,-0.96875 1.02958,-2.953619 0.0288,-3.587994 -1.00088,-0.634376 -2.06805,1.759104 -3.23574,1.55568 -1.11295,-0.193888 -1.34055,-2.575939 -2.36108,-2.575147 z m 1.50853,4.302948 c 1.74408,0 3.15844,1.41303 3.15844,3.15549 0,1.74246 -1.41436,3.1555 -3.15844,3.1555 -1.74408,0 -3.15844,-1.41304 -3.15844,-3.1555 0,-1.74246 1.41436,-3.15549 3.15844,-3.15549 z" style="fill:#00ff00;fill-rule:evenodd;stroke:#000000;stroke-width:0.06857273px;stroke-linecap:butt;stroke-linejoin:miter;stroke-opacity:1" inkscape:export-filename="/mnt/depot/widgetIcons.png" inkscape:export-xdpi="90" inkscape:export-ydpi="90"/>
    <path sodipodi:type="arc" style="fill:#ff0000;stroke:#000000;stroke-width:0.07833334;stroke-miterlimit:4;stroke-dasharray:none" id="path3053" sodipodi:cx="586.875" sodipodi:cy="74.424683" sodipodi:rx="5.875" sodipodi:ry="5.875" d="m 592.75,74.424683 c 0,3.244673 -2.63033,5.875 -5.875,5.875 -3.24467,0 -5.875,-2.630327 -5.875,-5.875 0,-3.244673 2.63033,-5.875 5.875,-5.875 3.24467,0 5.875,2.630327 5.875,5.875 z" transform="matrix(1.2765957,0,0,1.2765957,-114.38963,-68.960551)" inkscape:export-filename="/home/olov/workspace/olovs_oqr/freereg-web/src/main/webapp/images/widgetIcons.png" inkscape:export-xdpi="90" inkscape:export-ydpi="90"/>
    <g id="g4015" transform="matrix(0.70710678,-0.70710678,0.70710678,0.70710678,134.77678,424.08379)" style="stroke-width:2;stroke-miterlimit:4;stroke-dasharray:none" inkscape:export-filename="/home/olov/workspace/olovs_oqr/freereg-web/src/main/webapp/images/widgetIcons.png" inkscape:export-xdpi="90" inkscape:export-ydpi="90">
      <path sodipodi:nodetypes="cc" inkscape:connector-curvature="0" id="path3063" d="m 635.03125,65.371561 0,13.508903" style="fill:#ffffff;stroke:#ffffff;stroke-width:2;stroke-linecap:round;stroke-linejoin:miter;stroke-miterlimit:4;stroke-opacity:1;stroke-dasharray:none;marker-start:none"/>
      <path style="fill:#ffffff;stroke:#ffffff;stroke-width:2;stroke-linecap:round;stroke-linejoin:miter;stroke-miterlimit:4;stroke-opacity:1;stroke-dasharray:none;marker-start:none" d="m 641.7857,72.126012 -13.5089,0" id="path4013" inkscape:connector-curvature="0" sodipodi:nodetypes="cc"/>
    </g>
    <path transform="matrix(1.2765957,0,0,1.2765957,-114.38963,-52.960551)" d="m 592.75,74.424683 c 0,3.244673 -2.63033,5.875 -5.875,5.875 -3.24467,0 -5.875,-2.630327 -5.875,-5.875 0,-3.244673 2.63033,-5.875 5.875,-5.875 3.24467,0 5.875,2.630327 5.875,5.875 z" sodipodi:ry="5.875" sodipodi:rx="5.875" sodipodi:cy="74.424683" sodipodi:cx="586.875" id="path4019" style="fill:none;stroke:#000000;stroke-width:0.07833334;stroke-miterlimit:4;stroke-dasharray:none" sodipodi:type="arc" inkscape:export-filename="/home/olov/workspace/olovs_oqr/freereg-web/src/main/webapp/images/widgetIcons.png" inkscape:export-xdpi="90" inkscape:export-ydpi="90"/>
    <g style="stroke:#ff0000;stroke-width:2;stroke-miterlimit:4;stroke-dasharray:none" transform="matrix(0.70710678,-0.70710678,0.70710678,0.70710678,134.77678,440.08379)" id="g4021" inkscape:export-filename="/home/olov/workspace/olovs_oqr/freereg-web/src/main/webapp/images/widgetIcons.png" inkscape:export-xdpi="90" inkscape:export-ydpi="90">
      <path style="fill:#ffffff;stroke:#ff0000;stroke-width:2;stroke-linecap:round;stroke-linejoin:miter;stroke-miterlimit:4;stroke-opacity:1;stroke-dasharray:none;marker-start:none" d="m 635.03125,65.371561 0,13.508903" id="path4023" inkscape:connector-curvature="0" sodipodi:nodetypes="cc"/>
      <path sodipodi:nodetypes="cc" inkscape:connector-curvature="0" id="path4025" d="m 641.7857,72.126012 -13.5089,0" style="fill:#ffffff;stroke:#ff0000;stroke-width:2;stroke-linecap:round;stroke-linejoin:miter;stroke-miterlimit:4;stroke-opacity:1;stroke-dasharray:none;marker-start:none"/>
    </g>
    <g id="g4435" inkscape:export-filename="/home/olov/workspace/olovs_oqr/freereg-web/src/main/webapp/images/widgetIcons.png" inkscape:export-xdpi="90" inkscape:export-ydpi="90" transform="translate(0,-46)">
      <path inkscape:export-ydpi="90" inkscape:export-xdpi="90" inkscape:export-filename="/mnt/depot/widgetIcons.png" sodipodi:nodetypes="cccscccc" inkscape:connector-curvature="0" d="m 658.11554,66.988083 c -2.53551,6.610221 -5.59612,4.857463 -4.99071,11.787486 l 2.8e-4,0.0092 c 2.7e-4,0.41842 -0.89818,0.750096 -2.41537,0.750096 -1.51719,0 -2.37146,-0.331676 -2.37245,-0.750084 l -9.9e-4,-0.0092 c 0.60541,-6.930023 -2.4994,-5.177265 -5.01831,-11.788147 l 14.79955,-6.62e-4" style="fill:#d2691e;fill-opacity:1;stroke:#000000;stroke-width:0.1;stroke-linecap:butt;stroke-linejoin:miter;stroke-miterlimit:4;stroke-opacity:1;stroke-dasharray:none" id="path4057"/>
      <path inkscape:export-ydpi="90" inkscape:export-xdpi="90" inkscape:export-filename="/mnt/depot/widgetIcons.png" transform="matrix(0.96721991,0,0,0.84673128,110.93899,-5.290914)" d="m 565.75,85.174683 c 0,1.415229 -3.44181,2.5625 -7.6875,2.5625 -4.24569,0 -7.6875,-1.147271 -7.6875,-2.5625 0,-1.41523 3.44181,-2.5625 7.6875,-2.5625 4.24569,0 7.6875,1.14727 7.6875,2.5625 z" sodipodi:ry="2.5625" sodipodi:rx="7.6875" sodipodi:cy="85.174683" sodipodi:cx="558.0625" id="path4027" style="fill:#8b4513;fill-opacity:1;stroke:#000000;stroke-width:0.1;stroke-linecap:round;stroke-miterlimit:4;stroke-dasharray:none" sodipodi:type="arc"/>
    </g>
    <g id="g4439" inkscape:export-filename="/home/olov/workspace/olovs_oqr/freereg-web/src/main/webapp/images/widgetIcons.png" inkscape:export-xdpi="90" inkscape:export-ydpi="90" transform="translate(0,-46)">
      <g inkscape:export-ydpi="90" inkscape:export-xdpi="90" inkscape:export-filename="/mnt/depot/widgetIcons.png" transform="translate(0,16)" id="g4071">
        <path inkscape:export-ydpi="90" inkscape:export-xdpi="90" inkscape:export-filename="/mnt/depot/widgetIcons.png" sodipodi:nodetypes="cccscccc" inkscape:connector-curvature="0" d="m 658.11554,66.988083 c -2.53551,6.610221 -5.59612,4.857463 -4.99071,11.787486 l 2.8e-4,0.0092 c 2.7e-4,0.41842 -0.89818,0.750096 -2.41537,0.750096 -1.51719,0 -2.37146,-0.331676 -2.37245,-0.750084 l -9.9e-4,-0.0092 c 0.60541,-6.930023 -2.4994,-5.177265 -5.01831,-11.788147 l 14.79955,-6.62e-4" style="fill:#f5f5f5;stroke:#000000;stroke-width:0.1;stroke-linecap:butt;stroke-linejoin:miter;stroke-miterlimit:4;stroke-opacity:1;stroke-dasharray:none" id="path4073"/>
        <path inkscape:export-ydpi="90" inkscape:export-xdpi="90" inkscape:export-filename="/mnt/depot/widgetIcons.png" transform="matrix(0.96721991,0,0,0.84673128,110.93899,-5.290914)" d="m 565.75,85.174683 c 0,1.415229 -3.44181,2.5625 -7.6875,2.5625 -4.24569,0 -7.6875,-1.147271 -7.6875,-2.5625 0,-1.41523 3.44181,-2.5625 7.6875,-2.5625 4.24569,0 7.6875,1.14727 7.6875,2.5625 z" sodipodi:ry="2.5625" sodipodi:rx="7.6875" sodipodi:cy="85.174683" sodipodi:cx="558.0625" id="path4075" style="fill:#dcdcdc;stroke:#000000;stroke-width:0.1;stroke-linecap:round;stroke-miterlimit:4;stroke-dasharray:none" sodipodi:type="arc"/>
      </g>
    </g>
    <path inkscape:export-ydpi="90" inkscape:export-xdpi="90" inkscape:export-filename="/home/olov/workspace/olovs_oqr/freereg-web/src/main/webapp/images/widgetIcons.png" transform="matrix(1.2765957,0,0,1.2765957,-82.38963,-68.960551)" d="m 592.75,74.424683 c 0,3.244673 -2.63033,5.875 -5.875,5.875 -3.24467,0 -5.875,-2.630327 -5.875,-5.875 0,-3.244673 2.63033,-5.875 5.875,-5.875 3.24467,0 5.875,2.630327 5.875,5.875 z" sodipodi:ry="5.875" sodipodi:rx="5.875" sodipodi:cy="74.424683" sodipodi:cx="586.875" id="path4444" style="fill:#1e90ff;stroke:#000000;stroke-width:0.07833334;stroke-miterlimit:4;stroke-dasharray:none" sodipodi:type="arc"/>
    <g id="g4454" transform="translate(-0.22207458,-46)" style="fill:#ffffff" inkscape:export-filename="/home/olov/workspace/olovs_oqr/freereg-web/src/main/webapp/images/widgetIcons.png" inkscape:export-xdpi="90" inkscape:export-ydpi="90">
      <path transform="matrix(1.0470899,0,0,1.0479658,-25.567504,7.7216058)" d="m 662.82424,57.330357 c 0,0.75664 -0.61338,1.370019 -1.37002,1.370019 -0.75664,0 -1.37002,-0.613379 -1.37002,-1.370019 0,-0.756641 0.61338,-1.37002 1.37002,-1.37002 0.75664,0 1.37002,0.613379 1.37002,1.37002 z" sodipodi:ry="1.3700194" sodipodi:rx="1.3700194" sodipodi:cy="57.330357" sodipodi:cx="661.45422" id="path4446" style="fill:#ffffff;fill-opacity:1;stroke:#000000;stroke-width:0.1;stroke-linecap:round;stroke-miterlimit:4;stroke-dasharray:none" sodipodi:type="arc"/>
      <rect y="70.234192" x="665.59875" height="7.1625772" width="2.8715823" id="rect4452" style="fill:#ffffff;fill-opacity:1;stroke:#000000;stroke-width:0.07415204;stroke-linecap:round;stroke-miterlimit:4;stroke-dasharray:none"/>
    </g>
    <path sodipodi:type="arc" style="fill:#ffffff;stroke:#000000;stroke-width:0.07833334;stroke-miterlimit:4;stroke-dasharray:none" id="path4466" sodipodi:cx="586.875" sodipodi:cy="74.424683" sodipodi:rx="5.875" sodipodi:ry="5.875" d="m 592.75,74.424683 c 0,3.244673 -2.63033,5.875 -5.875,5.875 -3.24467,0 -5.875,-2.630327 -5.875,-5.875 0,-3.244673 2.63033,-5.875 5.875,-5.875 3.24467,0 5.875,2.630327 5.875,5.875 z" transform="matrix(1.2765957,0,0,1.2765957,-82.38963,-52.960551)" inkscape:export-filename="/home/olov/workspace/olovs_oqr/freereg-web/src/main/webapp/images/widgetIcons.png" inkscape:export-xdpi="90" inkscape:export-ydpi="90"/>
    <g transform="translate(-0.22207458,-30)" id="g4468" style="fill:#1e90ff" inkscape:export-filename="/home/olov/workspace/olovs_oqr/freereg-web/src/main/webapp/images/widgetIcons.png" inkscape:export-xdpi="90" inkscape:export-ydpi="90">
      <path sodipodi:type="arc" style="fill:#1e90ff;fill-opacity:1;stroke:#000000;stroke-width:0.1;stroke-linecap:round;stroke-miterlimit:4;stroke-dasharray:none" id="path4470" sodipodi:cx="661.45422" sodipodi:cy="57.330357" sodipodi:rx="1.3700194" sodipodi:ry="1.3700194" d="m 662.82424,57.330357 c 0,0.75664 -0.61338,1.370019 -1.37002,1.370019 -0.75664,0 -1.37002,-0.613379 -1.37002,-1.370019 0,-0.756641 0.61338,-1.37002 1.37002,-1.37002 0.75664,0 1.37002,0.613379 1.37002,1.37002 z" transform="matrix(1.0470899,0,0,1.0479658,-25.567504,7.7216058)"/>
      <rect style="fill:#1e90ff;fill-opacity:1;stroke:#000000;stroke-width:0.07415204;stroke-linecap:round;stroke-miterlimit:4;stroke-dasharray:none" id="rect4472" width="2.8715823" height="7.1625772" x="665.59875" y="70.234192"/>
    </g>
    <path inkscape:export-ydpi="90" inkscape:export-xdpi="90" inkscape:export-filename="/home/olov/workspace/olovs_oqr/freereg-web/src/main/webapp/images/widgetIcons.png" transform="matrix(1.2765957,0,0,1.2765957,-82.38963,-36.960551)" d="m 592.75,74.424683 c 0,3.244673 -2.63033,5.875 -5.875,5.875 -3.24467,0 -5.875,-2.630327 -5.875,-5.875 0,-3.244673 2.63033,-5.875 5.875,-5.875 3.24467,0 5.875,2.630327 5.875,5.875 z" sodipodi:ry="5.875" sodipodi:rx="5.875" sodipodi:cy="74.424683" sodipodi:cx="586.875" id="path4482" style="fill:none;stroke:#000000;stroke-width:0.07833334;stroke-miterlimit:4;stroke-dasharray:none" sodipodi:type="arc"/>
    <g inkscape:export-ydpi="90" inkscape:export-xdpi="90" inkscape:export-filename="/home/olov/workspace/olovs_oqr/freereg-web/src/main/webapp/images/widgetIcons.png" style="fill:#000000" id="g4484" transform="translate(-0.22207458,-14)">
      <path transform="matrix(1.0470899,0,0,1.0479658,-25.567504,7.7216058)" d="m 662.82424,57.330357 c 0,0.75664 -0.61338,1.370019 -1.37002,1.370019 -0.75664,0 -1.37002,-0.613379 -1.37002,-1.370019 0,-0.756641 0.61338,-1.37002 1.37002,-1.37002 0.75664,0 1.37002,0.613379 1.37002,1.37002 z" sodipodi:ry="1.3700194" sodipodi:rx="1.3700194" sodipodi:cy="57.330357" sodipodi:cx="661.45422" id="path4486" style="fill:#000000;fill-opacity:1;stroke:#000000;stroke-width:0.1;stroke-linecap:round;stroke-miterlimit:4;stroke-dasharray:none" sodipodi:type="arc"/>
      <rect y="70.234192" x="665.59875" height="7.1625772" width="2.8715823" id="rect4488" style="fill:#000000;fill-opacity:1;stroke:#000000;stroke-width:0.07415204;stroke-linecap:round;stroke-miterlimit:4;stroke-dasharray:none"/>
    </g>
    <g id="g9651" transform="translate(-2.306008,-46.773223)" inkscape:export-filename="/home/olov/workspace/olovs_oqr/freereg-web/src/main/webapp/images/widgetIcons.png" inkscape:export-xdpi="90" inkscape:export-ydpi="90">
      <path style="fill:#9400d3;fill-opacity:1;stroke:#000000;stroke-width:0.09918542;stroke-miterlimit:4;stroke-dasharray:none" d="m 685.84498,65.420988 c -4.08977,-0.40008 -7.72964,2.58955 -8.12989,6.67751 -0.0852,0.87 -0.01,1.70718 0.1904,2.50957 l 1.63031,-0.74348 c -0.0969,-0.51675 -0.11586,-1.04373 -0.062,-1.59403 0.30574,-3.1227 3.07498,-5.39722 6.19904,-5.09161 1.6088,0.15737 2.9786,0.98079 3.9007,2.15637 l 1.6642,-0.7713 c -1.20206,-1.72846 -3.13258,-2.92192 -5.39278,-3.14303 z m 6.484,5.67844 -1.63031,0.74348 c 0.0878,0.49801 0.11977,1.00379 0.0681,1.53234 -0.30575,3.1227 -3.07498,5.39722 -6.19905,5.09161 -1.57762,-0.15432 -2.92335,-0.94984 -3.84503,-2.08866 l -1.66117,0.74047 c 1.20437,1.69993 3.09726,2.88733 5.33409,3.10615 4.08975,0.40007 7.72963,-2.58955 8.12988,-6.67751 0.0831,-0.84949 -0.007,-1.66226 -0.19644,-2.44788 z" id="path9645" inkscape:connector-curvature="0"/>
      <path inkscape:transform-center-y="4.8783089" inkscape:transform-center-x="4.1232269" style="fill:#9400d3;fill-opacity:1;stroke:#000000;stroke-width:0.09918541;stroke-miterlimit:4;stroke-dasharray:none;stroke-dashoffset:0" d="m 678.43881,79.867348 0.76735,-4.34875 4.3507,0.76702 c -3.49032,1.26262 -2.73007,0.72553 -5.11805,3.58173 z" id="path9647" inkscape:connector-curvature="0" sodipodi:nodetypes="cccc" inkscape:export-filename="/home/olov/workspace/olovs_oqr/freereg-web/src/main/webapp/images/widgetIcons.png" inkscape:export-xdpi="90" inkscape:export-ydpi="90"/>
      <path inkscape:export-ydpi="90" inkscape:export-xdpi="90" inkscape:export-filename="/home/olov/workspace/olovs_oqr/freereg-web/src/main/webapp/images/widgetIcons.png" sodipodi:nodetypes="cccc" inkscape:connector-curvature="0" id="path9649" d="m 691.80331,65.761978 -0.76734,4.34876 -4.35069,-0.76702 c 3.49031,-1.26263 2.73005,-0.72553 5.11803,-3.58174 z" style="fill:#9400d3;fill-opacity:1;stroke:#000000;stroke-width:0.09918541;stroke-miterlimit:4;stroke-dasharray:none;stroke-dashoffset:0" inkscape:transform-center-x="-4.1232331" inkscape:transform-center-y="-4.8783061"/>
    </g>
    <g transform="translate(-2.306008,-30.773223)" id="g9656" style="fill:#000000;fill-opacity:1;stroke:#000000" inkscape:export-filename="/home/olov/workspace/olovs_oqr/freereg-web/src/main/webapp/images/widgetIcons.png" inkscape:export-xdpi="90" inkscape:export-ydpi="90">
      <path inkscape:connector-curvature="0" id="path9658" d="m 685.84498,65.420988 c -4.08977,-0.40008 -7.72964,2.58955 -8.12989,6.67751 -0.0852,0.87 -0.01,1.70718 0.1904,2.50957 l 1.63031,-0.74348 c -0.0969,-0.51675 -0.11586,-1.04373 -0.062,-1.59403 0.30574,-3.1227 3.07498,-5.39722 6.19904,-5.09161 1.6088,0.15737 2.9786,0.98079 3.9007,2.15637 l 1.6642,-0.7713 c -1.20206,-1.72846 -3.13258,-2.92192 -5.39278,-3.14303 z m 6.484,5.67844 -1.63031,0.74348 c 0.0878,0.49801 0.11977,1.00379 0.0681,1.53234 -0.30575,3.1227 -3.07498,5.39722 -6.19905,5.09161 -1.57762,-0.15432 -2.92335,-0.94984 -3.84503,-2.08866 l -1.66117,0.74047 c 1.20437,1.69993 3.09726,2.88733 5.33409,3.10615 4.08975,0.40007 7.72963,-2.58955 8.12988,-6.67751 0.0831,-0.84949 -0.007,-1.66226 -0.19644,-2.44788 z" style="fill:#000000;fill-opacity:1;stroke:#000000;stroke-width:0.09918542;stroke-miterlimit:4;stroke-dasharray:none"/>
      <path inkscape:export-ydpi="90" inkscape:export-xdpi="90" inkscape:export-filename="/home/olov/workspace/olovs_oqr/freereg-web/src/main/webapp/images/widgetIcons.png" sodipodi:nodetypes="cccc" inkscape:connector-curvature="0" id="path9660" d="m 678.43881,79.867348 0.76735,-4.34875 4.3507,0.76702 c -3.49032,1.26262 -2.73007,0.72553 -5.11805,3.58173 z" style="fill:#000000;fill-opacity:1;stroke:#000000;stroke-width:0.09918541;stroke-miterlimit:4;stroke-dasharray:none;stroke-dashoffset:0" inkscape:transform-center-x="4.1232269" inkscape:transform-center-y="4.8783089"/>
      <path inkscape:transform-center-y="-4.8783061" inkscape:transform-center-x="-4.1232331" style="fill:#000000;fill-opacity:1;stroke:#000000;stroke-width:0.09918541;stroke-miterlimit:4;stroke-dasharray:none;stroke-dashoffset:0" d="m 691.80331,65.761978 -0.76734,4.34876 -4.35069,-0.76702 c 3.49031,-1.26263 2.73005,-0.72553 5.11803,-3.58174 z" id="path9662" inkscape:connector-curvature="0" sodipodi:nodetypes="cccc" inkscape:export-filename="/home/olov/workspace/olovs_oqr/freereg-web/src/main/webapp/images/widgetIcons.png" inkscape:export-xdpi="90" inkscape:export-ydpi="90"/>
    </g>
    <g id="g9664" transform="translate(-2.306008,-14.773223)" style="fill:#fffff0;fill-opacity:1" inkscape:export-filename="/home/olov/workspace/olovs_oqr/freereg-web/src/main/webapp/images/widgetIcons.png" inkscape:export-xdpi="90" inkscape:export-ydpi="90">
      <path style="fill:#fffff0;fill-opacity:1;stroke:#000000;stroke-width:0.09918542;stroke-miterlimit:4;stroke-dasharray:none" d="m 685.84498,65.420988 c -4.08977,-0.40008 -7.72964,2.58955 -8.12989,6.67751 -0.0852,0.87 -0.01,1.70718 0.1904,2.50957 l 1.63031,-0.74348 c -0.0969,-0.51675 -0.11586,-1.04373 -0.062,-1.59403 0.30574,-3.1227 3.07498,-5.39722 6.19904,-5.09161 1.6088,0.15737 2.9786,0.98079 3.9007,2.15637 l 1.6642,-0.7713 c -1.20206,-1.72846 -3.13258,-2.92192 -5.39278,-3.14303 z m 6.484,5.67844 -1.63031,0.74348 c 0.0878,0.49801 0.11977,1.00379 0.0681,1.53234 -0.30575,3.1227 -3.07498,5.39722 -6.19905,5.09161 -1.57762,-0.15432 -2.92335,-0.94984 -3.84503,-2.08866 l -1.66117,0.74047 c 1.20437,1.69993 3.09726,2.88733 5.33409,3.10615 4.08975,0.40007 7.72963,-2.58955 8.12988,-6.67751 0.0831,-0.84949 -0.007,-1.66226 -0.19644,-2.44788 z" id="path9666" inkscape:connector-curvature="0"/>
      <path inkscape:transform-center-y="4.8783089" inkscape:transform-center-x="4.1232269" style="fill:#fffff0;fill-opacity:1;stroke:#000000;stroke-width:0.09918541;stroke-miterlimit:4;stroke-dasharray:none;stroke-dashoffset:0" d="m 678.43881,79.867348 0.76735,-4.34875 4.3507,0.76702 c -3.49032,1.26262 -2.73007,0.72553 -5.11805,3.58173 z" id="path9668" inkscape:connector-curvature="0" sodipodi:nodetypes="cccc" inkscape:export-filename="/home/olov/workspace/olovs_oqr/freereg-web/src/main/webapp/images/widgetIcons.png" inkscape:export-xdpi="90" inkscape:export-ydpi="90"/>
      <path inkscape:export-ydpi="90" inkscape:export-xdpi="90" inkscape:export-filename="/home/olov/workspace/olovs_oqr/freereg-web/src/main/webapp/images/widgetIcons.png" sodipodi:nodetypes="cccc" inkscape:connector-curvature="0" id="path9670" d="m 691.80331,65.761978 -0.76734,4.34876 -4.35069,-0.76702 c 3.49031,-1.26263 2.73005,-0.72553 5.11803,-3.58174 z" style="fill:#fffff0;fill-opacity:1;stroke:#000000;stroke-width:0.09918541;stroke-miterlimit:4;stroke-dasharray:none;stroke-dashoffset:0" inkscape:transform-center-x="-4.1232331" inkscape:transform-center-y="-4.8783061"/>
    </g>
    <g id="g9680" transform="translate(13.693992,-46.773223)" style="fill:#0000ff;fill-opacity:1" inkscape:export-filename="/home/olov/workspace/olovs_oqr/freereg-web/src/main/webapp/images/widgetIcons.png" inkscape:export-xdpi="90" inkscape:export-ydpi="90">
      <path style="fill:#0000ff;fill-opacity:1;stroke:#000000;stroke-width:0.09918542;stroke-miterlimit:4;stroke-dasharray:none" d="m 685.84498,65.420988 c -4.08977,-0.40008 -7.72964,2.58955 -8.12989,6.67751 -0.0852,0.87 -0.01,1.70718 0.1904,2.50957 l 1.63031,-0.74348 c -0.0969,-0.51675 -0.11586,-1.04373 -0.062,-1.59403 0.30574,-3.1227 3.07498,-5.39722 6.19904,-5.09161 1.6088,0.15737 2.9786,0.98079 3.9007,2.15637 l 1.6642,-0.7713 c -1.20206,-1.72846 -3.13258,-2.92192 -5.39278,-3.14303 z m 6.484,5.67844 -1.63031,0.74348 c 0.0878,0.49801 0.11977,1.00379 0.0681,1.53234 -0.30575,3.1227 -3.07498,5.39722 -6.19905,5.09161 -1.57762,-0.15432 -2.92335,-0.94984 -3.84503,-2.08866 l -1.66117,0.74047 c 1.20437,1.69993 3.09726,2.88733 5.33409,3.10615 4.08975,0.40007 7.72963,-2.58955 8.12988,-6.67751 0.0831,-0.84949 -0.007,-1.66226 -0.19644,-2.44788 z" id="path9682" inkscape:connector-curvature="0"/>
      <path inkscape:transform-center-y="4.8783089" inkscape:transform-center-x="4.1232269" style="fill:#0000ff;fill-opacity:1;stroke:#000000;stroke-width:0.09918541;stroke-miterlimit:4;stroke-dasharray:none;stroke-dashoffset:0" d="m 678.43881,79.867348 0.76735,-4.34875 4.3507,0.76702 c -3.49032,1.26262 -2.73007,0.72553 -5.11805,3.58173 z" id="path9684" inkscape:connector-curvature="0" sodipodi:nodetypes="cccc" inkscape:export-filename="/home/olov/workspace/olovs_oqr/freereg-web/src/main/webapp/images/widgetIcons.png" inkscape:export-xdpi="90" inkscape:export-ydpi="90"/>
      <path inkscape:export-ydpi="90" inkscape:export-xdpi="90" inkscape:export-filename="/home/olov/workspace/olovs_oqr/freereg-web/src/main/webapp/images/widgetIcons.png" sodipodi:nodetypes="cccc" inkscape:connector-curvature="0" id="path9686" d="m 691.80331,65.761978 -0.76734,4.34876 -4.35069,-0.76702 c 3.49031,-1.26263 2.73005,-0.72553 5.11803,-3.58174 z" style="fill:#0000ff;fill-opacity:1;stroke:#000000;stroke-width:0.09918541;stroke-miterlimit:4;stroke-dasharray:none;stroke-dashoffset:0" inkscape:transform-center-x="-4.1232331" inkscape:transform-center-y="-4.8783061"/>
    </g>
    <g transform="translate(13.693992,-30.773223)" id="g9688" style="fill:#8b4513;fill-opacity:1" inkscape:export-filename="/home/olov/workspace/olovs_oqr/freereg-web/src/main/webapp/images/widgetIcons.png" inkscape:export-xdpi="90" inkscape:export-ydpi="90">
      <path inkscape:connector-curvature="0" id="path9690" d="m 685.84498,65.420988 c -4.08977,-0.40008 -7.72964,2.58955 -8.12989,6.67751 -0.0852,0.87 -0.01,1.70718 0.1904,2.50957 l 1.63031,-0.74348 c -0.0969,-0.51675 -0.11586,-1.04373 -0.062,-1.59403 0.30574,-3.1227 3.07498,-5.39722 6.19904,-5.09161 1.6088,0.15737 2.9786,0.98079 3.9007,2.15637 l 1.6642,-0.7713 c -1.20206,-1.72846 -3.13258,-2.92192 -5.39278,-3.14303 z m 6.484,5.67844 -1.63031,0.74348 c 0.0878,0.49801 0.11977,1.00379 0.0681,1.53234 -0.30575,3.1227 -3.07498,5.39722 -6.19905,5.09161 -1.57762,-0.15432 -2.92335,-0.94984 -3.84503,-2.08866 l -1.66117,0.74047 c 1.20437,1.69993 3.09726,2.88733 5.33409,3.10615 4.08975,0.40007 7.72963,-2.58955 8.12988,-6.67751 0.0831,-0.84949 -0.007,-1.66226 -0.19644,-2.44788 z" style="fill:#8b4513;fill-opacity:1;stroke:#000000;stroke-width:0.09918542;stroke-miterlimit:4;stroke-dasharray:none"/>
      <path inkscape:export-ydpi="90" inkscape:export-xdpi="90" inkscape:export-filename="/home/olov/workspace/olovs_oqr/freereg-web/src/main/webapp/images/widgetIcons.png" sodipodi:nodetypes="cccc" inkscape:connector-curvature="0" id="path9692" d="m 678.43881,79.867348 0.76735,-4.34875 4.3507,0.76702 c -3.49032,1.26262 -2.73007,0.72553 -5.11805,3.58173 z" style="fill:#8b4513;fill-opacity:1;stroke:#000000;stroke-width:0.09918541;stroke-miterlimit:4;stroke-dasharray:none;stroke-dashoffset:0" inkscape:transform-center-x="4.1232269" inkscape:transform-center-y="4.8783089"/>
      <path inkscape:transform-center-y="-4.8783061" inkscape:transform-center-x="-4.1232331" style="fill:#8b4513;fill-opacity:1;stroke:#000000;stroke-width:0.09918541;stroke-miterlimit:4;stroke-dasharray:none;stroke-dashoffset:0" d="m 691.80331,65.761978 -0.76734,4.34876 -4.35069,-0.76702 c 3.49031,-1.26263 2.73005,-0.72553 5.11803,-3.58174 z" id="path9694" inkscape:connector-curvature="0" sodipodi:nodetypes="cccc" inkscape:export-filename="/home/olov/workspace/olovs_oqr/freereg-web/src/main/webapp/images/widgetIcons.png" inkscape:export-xdpi="90" inkscape:export-ydpi="90"/>
    </g>
    <g id="g9696" transform="translate(13.693992,-14.773223)" style="fill:#00ff00;fill-opacity:1" inkscape:export-filename="/home/olov/workspace/olovs_oqr/freereg-web/src/main/webapp/images/widgetIcons.png" inkscape:export-xdpi="90" inkscape:export-ydpi="90">
      <path style="fill:#00ff00;fill-opacity:1;stroke:#000000;stroke-width:0.09918542;stroke-miterlimit:4;stroke-dasharray:none" d="m 685.84498,65.420988 c -4.08977,-0.40008 -7.72964,2.58955 -8.12989,6.67751 -0.0852,0.87 -0.01,1.70718 0.1904,2.50957 l 1.63031,-0.74348 c -0.0969,-0.51675 -0.11586,-1.04373 -0.062,-1.59403 0.30574,-3.1227 3.07498,-5.39722 6.19904,-5.09161 1.6088,0.15737 2.9786,0.98079 3.9007,2.15637 l 1.6642,-0.7713 c -1.20206,-1.72846 -3.13258,-2.92192 -5.39278,-3.14303 z m 6.484,5.67844 -1.63031,0.74348 c 0.0878,0.49801 0.11977,1.00379 0.0681,1.53234 -0.30575,3.1227 -3.07498,5.39722 -6.19905,5.09161 -1.57762,-0.15432 -2.92335,-0.94984 -3.84503,-2.08866 l -1.66117,0.74047 c 1.20437,1.69993 3.09726,2.88733 5.33409,3.10615 4.08975,0.40007 7.72963,-2.58955 8.12988,-6.67751 0.0831,-0.84949 -0.007,-1.66226 -0.19644,-2.44788 z" id="path9698" inkscape:connector-curvature="0"/>
      <path inkscape:transform-center-y="4.8783089" inkscape:transform-center-x="4.1232269" style="fill:#00ff00;fill-opacity:1;stroke:#000000;stroke-width:0.09918541;stroke-miterlimit:4;stroke-dasharray:none;stroke-dashoffset:0" d="m 678.43881,79.867348 0.76735,-4.34875 4.3507,0.76702 c -3.49032,1.26262 -2.73007,0.72553 -5.11805,3.58173 z" id="path9700" inkscape:connector-curvature="0" sodipodi:nodetypes="cccc" inkscape:export-filename="/home/olov/workspace/olovs_oqr/freereg-web/src/main/webapp/images/widgetIcons.png" inkscape:export-xdpi="90" inkscape:export-ydpi="90"/>
      <path inkscape:export-ydpi="90" inkscape:export-xdpi="90" inkscape:export-filename="/home/olov/workspace/olovs_oqr/freereg-web/src/main/webapp/images/widgetIcons.png" sodipodi:nodetypes="cccc" inkscape:connector-curvature="0" id="path9702" d="m 691.80331,65.761978 -0.76734,4.34876 -4.35069,-0.76702 c 3.49031,-1.26263 2.73005,-0.72553 5.11803,-3.58174 z" style="fill:#00ff00;fill-opacity:1;stroke:#000000;stroke-width:0.09918541;stroke-miterlimit:4;stroke-dasharray:none;stroke-dashoffset:0" inkscape:transform-center-x="-4.1232331" inkscape:transform-center-y="-4.8783061"/>
    </g>
    <g style="fill:#1e90ff;fill-opacity:1;stroke:#000000" transform="translate(29.693992,-46.773223)" id="g9712" inkscape:export-filename="/home/olov/workspace/olovs_oqr/freereg-web/src/main/webapp/images/widgetIcons.png" inkscape:export-xdpi="90" inkscape:export-ydpi="90">
      <path inkscape:connector-curvature="0" id="path9714" d="m 685.84498,65.420988 c -4.08977,-0.40008 -7.72964,2.58955 -8.12989,6.67751 -0.0852,0.87 -0.01,1.70718 0.1904,2.50957 l 1.63031,-0.74348 c -0.0969,-0.51675 -0.11586,-1.04373 -0.062,-1.59403 0.30574,-3.1227 3.07498,-5.39722 6.19904,-5.09161 1.6088,0.15737 2.9786,0.98079 3.9007,2.15637 l 1.6642,-0.7713 c -1.20206,-1.72846 -3.13258,-2.92192 -5.39278,-3.14303 z m 6.484,5.67844 -1.63031,0.74348 c 0.0878,0.49801 0.11977,1.00379 0.0681,1.53234 -0.30575,3.1227 -3.07498,5.39722 -6.19905,5.09161 -1.57762,-0.15432 -2.92335,-0.94984 -3.84503,-2.08866 l -1.66117,0.74047 c 1.20437,1.69993 3.09726,2.88733 5.33409,3.10615 4.08975,0.40007 7.72963,-2.58955 8.12988,-6.67751 0.0831,-0.84949 -0.007,-1.66226 -0.19644,-2.44788 z" style="fill:#1e90ff;fill-opacity:1;stroke:#000000;stroke-width:0.09918542;stroke-miterlimit:4;stroke-dasharray:none"/>
      <path inkscape:export-ydpi="90" inkscape:export-xdpi="90" inkscape:export-filename="/home/olov/workspace/olovs_oqr/freereg-web/src/main/webapp/images/widgetIcons.png" sodipodi:nodetypes="cccc" inkscape:connector-curvature="0" id="path9716" d="m 678.43881,79.867348 0.76735,-4.34875 4.3507,0.76702 c -3.49032,1.26262 -2.73007,0.72553 -5.11805,3.58173 z" style="fill:#1e90ff;fill-opacity:1;stroke:#000000;stroke-width:0.09918541;stroke-miterlimit:4;stroke-dasharray:none;stroke-dashoffset:0" inkscape:transform-center-x="4.1232269" inkscape:transform-center-y="4.8783089"/>
      <path inkscape:transform-center-y="-4.8783061" inkscape:transform-center-x="-4.1232331" style="fill:#1e90ff;fill-opacity:1;stroke:#000000;stroke-width:0.09918541;stroke-miterlimit:4;stroke-dasharray:none;stroke-dashoffset:0" d="m 691.80331,65.761978 -0.76734,4.34876 -4.35069,-0.76702 c 3.49031,-1.26263 2.73005,-0.72553 5.11803,-3.58174 z" id="path9718" inkscape:connector-curvature="0" sodipodi:nodetypes="cccc" inkscape:export-filename="/home/olov/workspace/olovs_oqr/freereg-web/src/main/webapp/images/widgetIcons.png" inkscape:export-xdpi="90" inkscape:export-ydpi="90"/>
    </g>
    <g style="fill:#ff0000;fill-opacity:1" id="g9720" transform="translate(29.693992,-30.773223)" inkscape:export-filename="/home/olov/workspace/olovs_oqr/freereg-web/src/main/webapp/images/widgetIcons.png" inkscape:export-xdpi="90" inkscape:export-ydpi="90">
      <path style="fill:#ff0000;fill-opacity:1;stroke:#000000;stroke-width:0.09918542;stroke-miterlimit:4;stroke-dasharray:none" d="m 685.84498,65.420988 c -4.08977,-0.40008 -7.72964,2.58955 -8.12989,6.67751 -0.0852,0.87 -0.01,1.70718 0.1904,2.50957 l 1.63031,-0.74348 c -0.0969,-0.51675 -0.11586,-1.04373 -0.062,-1.59403 0.30574,-3.1227 3.07498,-5.39722 6.19904,-5.09161 1.6088,0.15737 2.9786,0.98079 3.9007,2.15637 l 1.6642,-0.7713 c -1.20206,-1.72846 -3.13258,-2.92192 -5.39278,-3.14303 z m 6.484,5.67844 -1.63031,0.74348 c 0.0878,0.49801 0.11977,1.00379 0.0681,1.53234 -0.30575,3.1227 -3.07498,5.39722 -6.19905,5.09161 -1.57762,-0.15432 -2.92335,-0.94984 -3.84503,-2.08866 l -1.66117,0.74047 c 1.20437,1.69993 3.09726,2.88733 5.33409,3.10615 4.08975,0.40007 7.72963,-2.58955 8.12988,-6.67751 0.0831,-0.84949 -0.007,-1.66226 -0.19644,-2.44788 z" id="path9722" inkscape:connector-curvature="0"/>
      <path inkscape:transform-center-y="4.8783089" inkscape:transform-center-x="4.1232269" style="fill:#ff0000;fill-opacity:1;stroke:#000000;stroke-width:0.09918541;stroke-miterlimit:4;stroke-dasharray:none;stroke-dashoffset:0" d="m 678.43881,79.867348 0.76735,-4.34875 4.3507,0.76702 c -3.49032,1.26262 -2.73007,0.72553 -5.11805,3.58173 z" id="path9724" inkscape:connector-curvature="0" sodipodi:nodetypes="cccc" inkscape:export-filename="/home/olov/workspace/olovs_oqr/freereg-web/src/main/webapp/images/widgetIcons.png" inkscape:export-xdpi="90" inkscape:export-ydpi="90"/>
      <path inkscape:export-ydpi="90" inkscape:export-xdpi="90" inkscape:export-filename="/home/olov/workspace/olovs_oqr/freereg-web/src/main/webapp/images/widgetIcons.png" sodipodi:nodetypes="cccc" inkscape:connector-curvature="0" id="path9726" d="m 691.80331,65.761978 -0.76734,4.34876 -4.35069,-0.76702 c 3.49031,-1.26263 2.73005,-0.72553 5.11803,-3.58174 z" style="fill:#ff0000;fill-opacity:1;stroke:#000000;stroke-width:0.09918541;stroke-miterlimit:4;stroke-dasharray:none;stroke-dashoffset:0" inkscape:transform-center-x="-4.1232331" inkscape:transform-center-y="-4.8783061"/>
    </g>
    <g style="fill:#dcdcdc;fill-opacity:1" transform="translate(29.693992,-14.773223)" id="g9728" inkscape:export-filename="/home/olov/workspace/olovs_oqr/freereg-web/src/main/webapp/images/widgetIcons.png" inkscape:export-xdpi="90" inkscape:export-ydpi="90">
      <path inkscape:connector-curvature="0" id="path9730" d="m 685.84498,65.420988 c -4.08977,-0.40008 -7.72964,2.58955 -8.12989,6.67751 -0.0852,0.87 -0.01,1.70718 0.1904,2.50957 l 1.63031,-0.74348 c -0.0969,-0.51675 -0.11586,-1.04373 -0.062,-1.59403 0.30574,-3.1227 3.07498,-5.39722 6.19904,-5.09161 1.6088,0.15737 2.9786,0.98079 3.9007,2.15637 l 1.6642,-0.7713 c -1.20206,-1.72846 -3.13258,-2.92192 -5.39278,-3.14303 z m 6.484,5.67844 -1.63031,0.74348 c 0.0878,0.49801 0.11977,1.00379 0.0681,1.53234 -0.30575,3.1227 -3.07498,5.39722 -6.19905,5.09161 -1.57762,-0.15432 -2.92335,-0.94984 -3.84503,-2.08866 l -1.66117,0.74047 c 1.20437,1.69993 3.09726,2.88733 5.33409,3.10615 4.08975,0.40007 7.72963,-2.58955 8.12988,-6.67751 0.0831,-0.84949 -0.007,-1.66226 -0.19644,-2.44788 z" style="fill:#dcdcdc;fill-opacity:1;stroke:#000000;stroke-width:0.09918542;stroke-miterlimit:4;stroke-dasharray:none"/>
      <path inkscape:export-ydpi="90" inkscape:export-xdpi="90" inkscape:export-filename="/home/olov/workspace/olovs_oqr/freereg-web/src/main/webapp/images/widgetIcons.png" sodipodi:nodetypes="cccc" inkscape:connector-curvature="0" id="path9732" d="m 678.43881,79.867348 0.76735,-4.34875 4.3507,0.76702 c -3.49032,1.26262 -2.73007,0.72553 -5.11805,3.58173 z" style="fill:#dcdcdc;fill-opacity:1;stroke:#000000;stroke-width:0.09918541;stroke-miterlimit:4;stroke-dasharray:none;stroke-dashoffset:0" inkscape:transform-center-x="4.1232269" inkscape:transform-center-y="4.8783089"/>
      <path inkscape:transform-center-y="-4.8783061" inkscape:transform-center-x="-4.1232331" style="fill:#dcdcdc;fill-opacity:1;stroke:#000000;stroke-width:0.09918541;stroke-miterlimit:4;stroke-dasharray:none;stroke-dashoffset:0" d="m 691.80331,65.761978 -0.76734,4.34876 -4.35069,-0.76702 c 3.49031,-1.26263 2.73005,-0.72553 5.11803,-3.58174 z" id="path9734" inkscape:connector-curvature="0" sodipodi:nodetypes="cccc" inkscape:export-filename="/home/olov/workspace/olovs_oqr/freereg-web/src/main/webapp/images/widgetIcons.png" inkscape:export-xdpi="90" inkscape:export-ydpi="90"/>
    </g>
    <g id="g3969" transform="matrix(0.75198966,0.27408159,-0.26627196,0.77404517,283.12462,-269.26187)" inkscape:export-filename="/home/olov/workspace/olovs_oqr/freereg-web/src/main/webapp/images/widgetIcons.png" inkscape:export-xdpi="90" inkscape:export-ydpi="90">
      <rect transform="matrix(0.00146734,-0.99999892,0.99999999,1.5076627e-4,0,0)" y="646.81421" x="-156.64775" height="3.6343198" width="13.554434" id="rect3963" style="fill:#ffffff;stroke:#000000;stroke-width:0.11736128;stroke-miterlimit:4;stroke-opacity:1;stroke-dasharray:none;stroke-dashoffset:0"/>
      <path sodipodi:nodetypes="cccc" inkscape:connector-curvature="0" id="path3965" d="m 646.59085,156.71293 1.77647,4.46306 1.84103,-4.4593 z" style="fill:#ffffff;stroke:#000000;stroke-width:0.1441056;stroke-linecap:butt;stroke-linejoin:miter;stroke-miterlimit:1;stroke-opacity:1;stroke-dasharray:none"/>
    </g>
    <g transform="matrix(0.75198966,0.27408159,-0.26627196,0.77404517,283.12462,-253.26187)" id="g3981" style="fill:#000000;stroke:#000000" inkscape:export-filename="/home/olov/workspace/olovs_oqr/freereg-web/src/main/webapp/images/widgetIcons.png" inkscape:export-xdpi="90" inkscape:export-ydpi="90">
      <rect style="fill:#000000;stroke:#000000;stroke-width:0.11736128;stroke-miterlimit:4;stroke-opacity:1;stroke-dasharray:none;stroke-dashoffset:0" id="rect3983" width="13.554434" height="3.6343198" x="-156.64775" y="646.81421" transform="matrix(0.00146734,-0.99999892,0.99999999,1.5076627e-4,0,0)"/>
      <path style="fill:#000000;stroke:#000000;stroke-width:0.1441056;stroke-linecap:butt;stroke-linejoin:miter;stroke-miterlimit:1;stroke-opacity:1;stroke-dasharray:none" d="m 646.59085,156.71293 1.77647,4.46306 1.84103,-4.4593 z" id="path3985" inkscape:connector-curvature="0" sodipodi:nodetypes="cccc"/>
    </g>
    <g id="g4013" style="stroke:#000000" inkscape:export-filename="/home/olov/workspace/olovs_oqr/freereg-web/src/main/webapp/images/widgetIcons.png" inkscape:export-xdpi="90" inkscape:export-ydpi="90">
      <path id="path3991" style="fill:#000000;fill-opacity:1;stroke:#000000;stroke-width:0.1;stroke-linecap:butt;stroke-linejoin:miter;stroke-miterlimit:4;stroke-opacity:1;stroke-dasharray:none" d="m 658.11554,52.988083 c -2.53551,6.610217 -5.59612,4.857467 -4.99071,11.787487 l 2.8e-4,0.009 c 2.7e-4,0.41842 -0.89818,0.7501 -2.41537,0.7501 -1.51719,0 -2.37146,-0.33168 -2.37245,-0.75009 l -9.9e-4,-0.009 c 0.60541,-6.93002 -2.4994,-5.17726 -5.01831,-11.788146 l 14.79955,-6.62e-4" inkscape:connector-curvature="0" sodipodi:nodetypes="cccscccc" inkscape:export-filename="/mnt/depot/widgetIcons.png" inkscape:export-xdpi="90" inkscape:export-ydpi="90"/>
      <path sodipodi:type="arc" style="fill:#000000;fill-opacity:1;stroke:#000000;stroke-width:0.1;stroke-linecap:round;stroke-miterlimit:4;stroke-dasharray:none" id="path3993" sodipodi:cx="558.0625" sodipodi:cy="85.174683" sodipodi:rx="7.6875" sodipodi:ry="2.5625" d="m 565.75,85.174683 c 0,1.415229 -3.44181,2.5625 -7.6875,2.5625 -4.24569,0 -7.6875,-1.147271 -7.6875,-2.5625 0,-1.41523 3.44181,-2.5625 7.6875,-2.5625 4.24569,0 7.6875,1.14727 7.6875,2.5625 z" transform="matrix(0.96721991,0,0,0.84673128,110.93899,-19.290914)" inkscape:export-filename="/mnt/depot/widgetIcons.png" inkscape:export-xdpi="90" inkscape:export-ydpi="90"/>
    </g>
    <g inkscape:export-ydpi="90" inkscape:export-xdpi="90" inkscape:export-filename="/home/olov/workspace/olovs_oqr/freereg-web/src/main/webapp/images/widgetIcons.png" id="g3995" transform="translate(0,-14)" style="fill:#ffffff">
      <g id="g3997" transform="translate(0,16)" inkscape:export-filename="/mnt/depot/widgetIcons.png" inkscape:export-xdpi="90" inkscape:export-ydpi="90" style="fill:#ffffff">
        <path id="path3999" style="fill:#ffffff;stroke:#000000;stroke-width:0.1;stroke-linecap:butt;stroke-linejoin:miter;stroke-miterlimit:4;stroke-opacity:1;stroke-dasharray:none" d="m 658.11554,66.988083 c -2.53551,6.610221 -5.59612,4.857463 -4.99071,11.787486 l 2.8e-4,0.0092 c 2.7e-4,0.41842 -0.89818,0.750096 -2.41537,0.750096 -1.51719,0 -2.37146,-0.331676 -2.37245,-0.750084 l -9.9e-4,-0.0092 c 0.60541,-6.930023 -2.4994,-5.177265 -5.01831,-11.788147 l 14.79955,-6.62e-4" inkscape:connector-curvature="0" sodipodi:nodetypes="cccscccc" inkscape:export-filename="/mnt/depot/widgetIcons.png" inkscape:export-xdpi="90" inkscape:export-ydpi="90"/>
        <path sodipodi:type="arc" style="fill:#ffffff;stroke:#000000;stroke-width:0.1;stroke-linecap:round;stroke-miterlimit:4;stroke-dasharray:none" id="path4001" sodipodi:cx="558.0625" sodipodi:cy="85.174683" sodipodi:rx="7.6875" sodipodi:ry="2.5625" d="m 565.75,85.174683 c 0,1.415229 -3.44181,2.5625 -7.6875,2.5625 -4.24569,0 -7.6875,-1.147271 -7.6875,-2.5625 0,-1.41523 3.44181,-2.5625 7.6875,-2.5625 4.24569,0 7.6875,1.14727 7.6875,2.5625 z" transform="matrix(0.96721991,0,0,0.84673128,110.93899,-5.290914)" inkscape:export-filename="/mnt/depot/widgetIcons.png" inkscape:export-xdpi="90" inkscape:export-ydpi="90"/>
      </g>
    </g>
    <path sodipodi:type="arc" style="fill:none;stroke:#ffffff;stroke-width:0.07833334;stroke-miterlimit:4;stroke-dasharray:none" id="path4005" sodipodi:cx="586.875" sodipodi:cy="74.424683" sodipodi:rx="5.875" sodipodi:ry="5.875" d="m 592.75,74.424683 c 0,3.244673 -2.63033,5.875 -5.875,5.875 -3.24467,0 -5.875,-2.630327 -5.875,-5.875 0,-3.244673 2.63033,-5.875 5.875,-5.875 3.24467,0 5.875,2.630327 5.875,5.875 z" transform="matrix(1.2765957,0,0,1.2765957,-82.38963,-20.960551)" inkscape:export-filename="/home/olov/workspace/olovs_oqr/freereg-web/src/main/webapp/images/widgetIcons.png" inkscape:export-xdpi="90" inkscape:export-ydpi="90"/>
    <g transform="translate(-0.22207458,2)" id="g4007" style="fill:#ffffff" inkscape:export-filename="/home/olov/workspace/olovs_oqr/freereg-web/src/main/webapp/images/widgetIcons.png" inkscape:export-xdpi="90" inkscape:export-ydpi="90">
      <path sodipodi:type="arc" style="fill:#ffffff;fill-opacity:1;stroke:#000000;stroke-width:0.1;stroke-linecap:round;stroke-miterlimit:4;stroke-dasharray:none" id="path4009" sodipodi:cx="661.45422" sodipodi:cy="57.330357" sodipodi:rx="1.3700194" sodipodi:ry="1.3700194" d="m 662.82424,57.330357 c 0,0.75664 -0.61338,1.370019 -1.37002,1.370019 -0.75664,0 -1.37002,-0.613379 -1.37002,-1.370019 0,-0.756641 0.61338,-1.37002 1.37002,-1.37002 0.75664,0 1.37002,0.613379 1.37002,1.37002 z" transform="matrix(1.0470899,0,0,1.0479658,-25.567504,7.7216058)"/>
      <rect style="fill:#ffffff;fill-opacity:1;stroke:#000000;stroke-width:0.07415204;stroke-linecap:round;stroke-miterlimit:4;stroke-dasharray:none" id="rect4011" width="2.8715823" height="7.1625772" x="665.59875" y="70.234192"/>
    </g>
    <g inkscape:export-ydpi="90" inkscape:export-xdpi="90" inkscape:export-filename="/home/olov/workspace/olovs_oqr/freereg-web/src/main/webapp/images/widgetIcons.png" transform="matrix(0.75198966,0.27408159,-0.26627196,0.77404517,283.12462,-237.26187)" id="g5206" style="fill:#1e90ff;stroke:#000000">
      <rect style="fill:#1e90ff;stroke:#000000;stroke-width:0.11736128;stroke-miterlimit:4;stroke-opacity:1;stroke-dasharray:none;stroke-dashoffset:0" id="rect5208" width="13.554434" height="3.6343198" x="-156.64775" y="646.81421" transform="matrix(0.00146734,-0.99999892,0.99999999,1.5076627e-4,0,0)"/>
      <path style="fill:#1e90ff;stroke:#000000;stroke-width:0.1441056;stroke-linecap:butt;stroke-linejoin:miter;stroke-miterlimit:1;stroke-opacity:1;stroke-dasharray:none" d="m 646.59085,156.71293 1.77647,4.46306 1.84103,-4.4593 z" id="path5210" inkscape:connector-curvature="0" sodipodi:nodetypes="cccc"/>
    </g>
    <g inkscape:export-ydpi="90" inkscape:export-xdpi="90" inkscape:export-filename="/home/olov/workspace/olovs_oqr/freereg-web/src/main/webapp/images/widgetIcons.png" style="fill:#1e90ff;stroke:#000000" id="g5214" transform="translate(-0.22207458,18)">
      <path transform="matrix(1.0470899,0,0,1.0479658,-25.567504,7.7216058)" d="m 662.82424,57.330357 c 0,0.75664 -0.61338,1.370019 -1.37002,1.370019 -0.75664,0 -1.37002,-0.613379 -1.37002,-1.370019 0,-0.756641 0.61338,-1.37002 1.37002,-1.37002 0.75664,0 1.37002,0.613379 1.37002,1.37002 z" sodipodi:ry="1.3700194" sodipodi:rx="1.3700194" sodipodi:cy="57.330357" sodipodi:cx="661.45422" id="path5216" style="fill:#1e90ff;fill-opacity:1;stroke:#000000;stroke-width:0.1;stroke-linecap:round;stroke-miterlimit:4;stroke-dasharray:none" sodipodi:type="arc"/>
      <rect y="70.234192" x="665.59875" height="7.1625772" width="2.8715823" id="rect5218" style="fill:#1e90ff;fill-opacity:1;stroke:#000000;stroke-width:0.07415204;stroke-linecap:round;stroke-miterlimit:4;stroke-dasharray:none"/>
    </g>
    <path inkscape:export-ydpi="90" inkscape:export-xdpi="90" inkscape:export-filename="/mnt/depot/widgetIcons.png" inkscape:connector-curvature="0" id="path5234" d="m 601.30523,66.612202 c -0.0502,4e-5 -0.1026,0.0055 -0.15683,0.01765 -1.15671,0.258499 -0.21861,2.706124 -1.18827,3.387188 -0.96965,0.68107 -2.95637,-1.030838 -3.59133,-0.0309 -0.63497,0.99995 1.76074,2.06613 1.55712,3.23273 -0.20362,1.1666 -2.81861,1.36213 -2.55987,2.51777 0.25875,1.15565 2.70643,0.21622 3.38813,1.18497 0.68171,0.96875 -1.02959,2.95362 -0.0288,3.58799 1.00088,0.63438 2.06806,-1.7591 3.23574,-1.55568 1.16768,0.20343 1.36119,2.8182 2.51791,2.55971 1.15671,-0.2585 0.21862,-2.70613 1.18827,-3.3872 0.96965,-0.68106 2.95637,1.02864 3.59133,0.0287 0.63497,-0.99994 -1.76074,-2.06612 -1.55712,-3.23272 0.20362,-1.1666 2.81861,-1.35993 2.55987,-2.51557 -0.25875,-1.15564 -2.70643,-0.21842 -3.38812,-1.18717 -0.68172,-0.96875 1.02958,-2.953619 0.0288,-3.587994 -1.00088,-0.634376 -2.06805,1.759104 -3.23574,1.55568 -1.11295,-0.193888 -1.34055,-2.575939 -2.36108,-2.575147 z m 1.50853,4.302948 c 1.74408,0 3.15844,1.41303 3.15844,3.15549 0,1.74246 -1.41436,3.1555 -3.15844,3.1555 -1.74408,0 -3.15844,-1.41304 -3.15844,-3.1555 0,-1.74246 1.41436,-3.15549 3.15844,-3.15549 z" style="fill:#1e90ff;fill-rule:evenodd;stroke:#000000;stroke-width:0.06857273px;stroke-linecap:butt;stroke-linejoin:miter;stroke-opacity:1"/>
    <g id="g5790" style="stroke:#000000">
      <path inkscape:export-ydpi="90" inkscape:export-xdpi="90" inkscape:export-filename="/mnt/depot/widgetIcons.png" sodipodi:nodetypes="cccscccc" inkscape:connector-curvature="0" d="m 658.11554,84.988083 c -2.53551,6.610221 -5.59612,4.857463 -4.99071,11.787486 l 2.8e-4,0.0092 c 2.7e-4,0.41842 -0.89818,0.750096 -2.41537,0.750096 -1.51719,0 -2.37146,-0.331676 -2.37245,-0.750084 l -9.9e-4,-0.0092 c 0.60541,-6.930023 -2.4994,-5.177265 -5.01831,-11.788147 l 14.79955,-6.62e-4" style="fill:#1e90ff;stroke:#000000;stroke-width:0.1;stroke-linecap:butt;stroke-linejoin:miter;stroke-miterlimit:4;stroke-opacity:1;stroke-dasharray:none" id="path5781"/>
      <path inkscape:export-ydpi="90" inkscape:export-xdpi="90" inkscape:export-filename="/mnt/depot/widgetIcons.png" transform="matrix(0.96721991,0,0,0.84673128,110.93899,12.709086)" d="m 565.75,85.174683 c 0,1.415229 -3.44181,2.5625 -7.6875,2.5625 -4.24569,0 -7.6875,-1.147271 -7.6875,-2.5625 0,-1.41523 3.44181,-2.5625 7.6875,-2.5625 4.24569,0 7.6875,1.14727 7.6875,2.5625 z" sodipodi:ry="2.5625" sodipodi:rx="7.6875" sodipodi:cy="85.174683" sodipodi:cx="558.0625" id="path5783" style="fill:#0000ff;stroke:#000000;stroke-width:0.1;stroke-linecap:round;stroke-miterlimit:4;stroke-dasharray:none" sodipodi:type="arc"/>
    </g>
    <path style="fill:#ffffff;stroke:#000000;stroke-width:0.12500000000000000;stroke-linecap:butt;stroke-linejoin:miter;stroke-miterlimit:4;stroke-opacity:1;stroke-dasharray:none" d="m 739.46433,22.497789 0.31193,-0.293366 c 0.87317,-0.304213 1.38035,-0.971602 1.57198,-1.52434 0.2488,-0.669128 3.14908,-3.270983 6.79425,-1.36136 -2.4324,-0.412602 -3.45313,0.09601 -3.83159,0.499701 -0.5003,0.53367 -0.10624,1.021234 -0.10624,1.021234 0,0 1.68793,2.094885 2.56205,3.117043 1.53298,0.747205 6.648,6.72065 7.38505,8.302206 l -1.26609,1.044134 c -1.47362,-0.712985 -6.68872,-7.395033 -7.02016,-8.580535 -1.2853,-1.516138 -2.21759,-2.630979 -2.67617,-2.940389 -0.49487,-0.393524 -1.43259,-0.386471 -2.4204,1.406348 l -0.37884,0.352587 z" id="path3795" inkscape:connector-curvature="0" sodipodi:nodetypes="ccccsccccccccc"/>
    <path sodipodi:nodetypes="ccccsccccccccc" inkscape:connector-curvature="0" id="path4595" d="m 739.46433,38.497789 0.31193,-0.293366 c 0.87317,-0.304213 1.38035,-0.971602 1.57198,-1.52434 0.2488,-0.669128 3.14908,-3.270983 6.79425,-1.36136 -2.4324,-0.412602 -3.45313,0.09601 -3.83159,0.499701 -0.5003,0.53367 -0.10624,1.021234 -0.10624,1.021234 0,0 1.68793,2.094885 2.56205,3.117043 1.53298,0.747205 6.648,6.72065 7.38505,8.302206 l -1.26609,1.044134 c -1.47362,-0.712985 -6.68872,-7.395033 -7.02016,-8.580535 -1.2853,-1.516138 -2.21759,-2.630979 -2.67617,-2.940389 -0.49487,-0.393524 -1.43259,-0.386471 -2.4204,1.406348 l -0.37884,0.352587 z" style="fill:#000000;stroke:#000000;stroke-width:0.12500000000000000;stroke-linecap:butt;stroke-linejoin:miter;stroke-miterlimit:4;stroke-opacity:1;stroke-dasharray:none"/>
    <path style="fill:#1e90ff;stroke:#000000;stroke-width:0.12500000000000000;stroke-linecap:butt;stroke-linejoin:miter;stroke-miterlimit:4;stroke-opacity:1;stroke-dasharray:none;fill-opacity:1" d="m 739.46433,54.497789 0.31193,-0.293366 c 0.87317,-0.304213 1.38035,-0.971602 1.57198,-1.52434 0.2488,-0.669128 3.14908,-3.270983 6.79425,-1.36136 -2.4324,-0.412602 -3.45313,0.09601 -3.83159,0.499701 -0.5003,0.53367 -0.10624,1.021234 -0.10624,1.021234 0,0 1.68793,2.094885 2.56205,3.117043 1.53298,0.747205 6.648,6.72065 7.38505,8.302206 l -1.26609,1.044134 c -1.47362,-0.712985 -6.68872,-7.395033 -7.02016,-8.580535 -1.2853,-1.516138 -2.21759,-2.630979 -2.67617,-2.940389 -0.49487,-0.393524 -1.43259,-0.386471 -2.4204,1.406348 l -0.37884,0.352587 z" id="path4597" inkscape:connector-curvature="0" sodipodi:nodetypes="ccccsccccccccc"/>
  </g>
</svg>